<?xml version="1.0" encoding="utf-8"?>
<!-- Generator: Adobe Illustrator 18.1.1, SVG Export Plug-In . SVG Version: 6.00 Build 0)  -->
<svg version="1.1" id="HOUR" xmlns="http://www.w3.org/2000/svg" xmlns:xlink="http://www.w3.org/1999/xlink" x="0px" y="0px"
	 viewBox="435.6 0 128.8 1000" enable-background="new 435.6 0 128.8 1000" xml:space="preserve">
<path d="M564.4,977.8c-8.1-241.3-32.3-965.4-32.3-965.4c-4.8-7-18.2-12.3-32.3-12.3c-14.2,0-27.5,5.2-32.2,12.3
	l-32,965.5l0,0c16.4,9.5,47.2,22.2,64.2,22.2C516.9,1000.2,548,987.3,564.4,977.8L564.4,977.8z M499.8,572.3
	c-13.4,0-24.2-11.3-24.2-25.2l12.1-479c0-7.1,5.4-12.8,12.1-12.8c6.7,0,12.1,5.7,12.1,12.8l12.1,479
	C524,561,513.2,572.3,499.8,572.3z M435.6,977.9c16.2,12.8,47.2,22.4,64.2,22.2c17.1-0.1,50.7-10.7,64.6-22.4"/>
</svg>
