<?xml version="1.0" encoding="utf-8"?>
<!-- Generator: Adobe Illustrator 18.1.1, SVG Export Plug-In . SVG Version: 6.00 Build 0)  -->
<svg version="1.1" id="HOUR" xmlns="http://www.w3.org/2000/svg" xmlns:xlink="http://www.w3.org/1999/xlink" x="0px" y="0px"
	 viewBox="0 0 128.818 1000" enable-background="new 0 0 128.818 1000" xml:space="preserve">
<path fill="#68645B" d="M128.818,977.796C120.733,736.447,96.477,12.401,96.477,12.401C91.681,5.425,78.258,0.124,64.178,0.124
	c-14.223,0-27.469,5.19-32.165,12.278L0,977.937l0,0c16.442,9.519,47.248,22.247,64.245,22.238
	C81.33,1000.166,112.378,987.312,128.818,977.796L128.818,977.796z M64.245,572.271c-13.351,0-24.174-11.275-24.174-25.182
	L52.157,68.137c0-7.093,5.411-12.843,12.087-12.843c6.675,0,12.087,5.749,12.087,12.843l12.087,478.952
	C88.419,560.996,77.596,572.271,64.245,572.271z M0,977.937c16.217,12.833,47.249,22.362,64.245,22.238
	c17.085-0.124,50.749-10.707,64.574-22.379"/>
</svg>
