<?xml version="1.0" encoding="utf-8"?>
<!-- Generator: Adobe Illustrator 18.1.1, SVG Export Plug-In . SVG Version: 6.00 Build 0)  -->
<svg version="1.1" id="MINUTE" xmlns="http://www.w3.org/2000/svg" xmlns:xlink="http://www.w3.org/1999/xlink" x="0px" y="0px"
	 viewBox="455.1 0 89.8 1000" enable-background="new 455.1 0 89.8 1000" xml:space="preserve">
<path d="M544.9,984.4l-22.5-972c-3.3-7-12.7-12.3-22.5-12.3c-9.9,0-19.1,5.2-22.4,12.3l-22.5,972l0,0
	c16.3,10.5,27.2,15.5,44.8,15.6C517.3,1000.1,530.7,993.8,544.9,984.4L544.9,984.4z M500,587.4c-9.3,0-16.8-11.3-16.8-25.2
	l8.4-522.4c0-7.1,3.8-12.8,8.4-12.8c4.7,0,8.4,5.7,8.4,12.8l8.4,522.4C516.8,576.1,509.3,587.4,500,587.4z"/>
</svg>
